<svg width="32" height="32" viewBox="0 0 32 32" fill="none" xmlns="http://www.w3.org/2000/svg">
  <!-- Steam lines (shorter and positioned higher) -->
  <rect x="17" y="2" width="8" height="2.5" rx="1.25" fill="#9B8BAF" opacity="0.9"/>
  <rect x="12" y="5.5" width="9" height="2.5" rx="1.25" fill="#9B8BAF" opacity="0.8"/>
  <rect x="15" y="9" width="6" height="2.5" rx="1.25" fill="#9B8BAF" opacity="0.7"/>

  <!-- Mug body (taller to match proportions) -->
  <rect x="9" y="12.5" width="14" height="16" rx="2" fill="#FF6B6B"/>

  <!-- Mug highlight (right half) -->
  <rect x="16" y="12.5" width="7" height="16" rx="2" fill="#FF8989" opacity="0.5"/>

  <!-- Mug outline (lighter for dark backgrounds) -->
  <rect x="9" y="12.5" width="14" height="16" rx="2" stroke="#1A1A1A" stroke-width="2.5" fill="none"/>

  <!-- White inner outline for visibility on dark backgrounds -->
  <rect x="9" y="12.5" width="14" height="16" rx="2" stroke="#FFFFFF" stroke-width="0.5" fill="none" opacity="0.3"/>

  <!-- Handle (adjusted for new proportions) -->
  <path d="M 7 16.5 Q 3 16.5 3 20.5 Q 3 24.5 7 24.5" stroke="#1A1A1A" stroke-width="2.5" fill="none" stroke-linecap="round"/>
  <path d="M 7 16.5 Q 4 16.5 4 20.5 Q 4 24.5 7 24.5" stroke="#FF6B6B" stroke-width="1.5" fill="none" stroke-linecap="round"/>

  <!-- White outline on handle for dark backgrounds -->
  <path d="M 7 16.5 Q 3 16.5 3 20.5 Q 3 24.5 7 24.5" stroke="#FFFFFF" stroke-width="0.5" fill="none" stroke-linecap="round" opacity="0.3"/>
</svg>
