<svg width="64" height="64" viewBox="0 0 64 64" fill="none" xmlns="http://www.w3.org/2000/svg">
  <!-- Add padding: use viewBox with extra space to prevent browser truncation -->
  <!-- Steam lines (positioned higher with more clearance) -->
  <rect x="36" y="8" width="16" height="5" rx="2.5" fill="#9B8BAF" opacity="0.9"/>
  <rect x="26" y="15" width="18" height="5" rx="2.5" fill="#9B8BAF" opacity="0.8"/>
  <rect x="32" y="22" width="12" height="5" rx="2.5" fill="#9B8BAF" opacity="0.7"/>

  <!-- Mug body (centered with padding, taller proportions) -->
  <rect x="20" y="29" width="28" height="32" rx="4" fill="#FF6B6B"/>

  <!-- Mug highlight (right half) -->
  <rect x="34" y="29" width="14" height="32" rx="4" fill="#FF8989" opacity="0.5"/>

  <!-- Mug outline (lighter for dark backgrounds) -->
  <rect x="20" y="29" width="28" height="32" rx="4" stroke="#1A1A1A" stroke-width="3.5" fill="none"/>

  <!-- White inner outline for visibility on dark backgrounds -->
  <rect x="20" y="29" width="28" height="32" rx="4" stroke="#FFFFFF" stroke-width="0.8" fill="none" opacity="0.3"/>

  <!-- Handle (adjusted for new proportions and positioning) -->
  <path d="M 16 37 Q 8 37 8 45 Q 8 53 16 53" stroke="#1A1A1A" stroke-width="4" fill="none" stroke-linecap="round"/>
  <path d="M 16 37 Q 10 37 10 45 Q 10 53 16 53" stroke="#FF6B6B" stroke-width="2.5" fill="none" stroke-linecap="round"/>

  <!-- White outline on handle for dark backgrounds -->
  <path d="M 16 37 Q 8 37 8 45 Q 8 53 16 53" stroke="#FFFFFF" stroke-width="0.8" fill="none" stroke-linecap="round" opacity="0.3"/>
</svg>
